HIERARCHY
ROOT Hips
{
	OFFSET 0.000000 0.000000 0.000000
	CHANNELS 6 Xposition Yposition Zposition Zrotation Yrotation Xrotation 
	JOINT LeftUpLeg_virtual
	{
		OFFSET 0.000000 0.000000 0.000000
		CHANNELS 3 Zrotation Yrotation Xrotation
		JOINT LeftUpLeg
		{
			OFFSET 8.479694 -4.795517 -0.379053
			CHANNELS 3 Zrotation Yrotation Xrotation
			JOINT LeftLeg
			{
				OFFSET 0.485052 -32.551468 0.112863
				CHANNELS 3 Zrotation Yrotation Xrotation
				JOINT LeftFoot
				{
					OFFSET 0.438033 -32.635670 -3.012641
					CHANNELS 3 Zrotation Yrotation Xrotation
					JOINT LeftToeBase
					{
						OFFSET 0.970169 -13.225353 11.864223
						CHANNELS 3 Zrotation Yrotation Xrotation
						End Site
						{
							OFFSET 0.000000 0.000000 0.000000
						}
					}
				}
			}
		}
	}
	JOINT RightUpLeg_virtual
	{
		OFFSET 0.000000 0.000000 0.000000
		CHANNELS 3 Zrotation Yrotation Xrotation
		JOINT RightUpLeg
		{
			OFFSET -8.479694 -4.795517 -0.379053
			CHANNELS 3 Zrotation Yrotation Xrotation
			JOINT RightLeg
			{
				OFFSET -0.484100 -32.551483 0.112903
				CHANNELS 3 Zrotation Yrotation Xrotation
				JOINT RightFoot
				{
					OFFSET -0.438985 -32.635651 -3.012681
					CHANNELS 3 Zrotation Yrotation Xrotation
					JOINT RightToeBase
					{
						OFFSET -0.970169 -13.225354 11.864223
						CHANNELS 3 Zrotation Yrotation Xrotation
						End Site
						{
							OFFSET 0.000000 0.000000 0.000000
						}
					}
				}
			}
		}
	}
	JOINT Spine_virtual
	{
		OFFSET 0.000000 0.000000 0.000000
		CHANNELS 3 Zrotation Yrotation Xrotation
		JOINT Spine
		{
			OFFSET 0.000000 7.722015 1.166203
			CHANNELS 3 Zrotation Yrotation Xrotation
			JOINT Spine1
			{
				OFFSET 0.000000 12.024086 0.248766
				CHANNELS 3 Zrotation Yrotation Xrotation
				JOINT Spine2
				{
					OFFSET -0.000000 11.503036 -0.491240
					CHANNELS 3 Zrotation Yrotation Xrotation
					JOINT Neck_virtual
					{
						OFFSET 0.000000 0.000000 0.000000
						CHANNELS 3 Zrotation Yrotation Xrotation
						JOINT Neck
						{
							OFFSET 0.000000 18.430687 -3.123054
							CHANNELS 3 Zrotation Yrotation Xrotation
							JOINT Head
							{
								OFFSET -0.000000 9.051071 1.034021
								CHANNELS 3 Zrotation Yrotation Xrotation
								End Site
								{
									OFFSET 0.000000 0.000000 0.000000
								}
							}
						}
					}
					JOINT LeftShoulder_virtual
					{
						OFFSET 0.000000 0.000000 0.000000
						CHANNELS 3 Zrotation Yrotation Xrotation
						JOINT LeftShoulder
						{
							OFFSET 6.197824 13.665230 -4.064723
							CHANNELS 3 Zrotation Yrotation Xrotation
							JOINT LeftArm
							{
								OFFSET 7.778132 -0.187073 -1.709282
								CHANNELS 3 Zrotation Yrotation Xrotation
								JOINT LeftForeArm
								{
									OFFSET 21.954697 0.000000 -2.041093
									CHANNELS 3 Zrotation Yrotation Xrotation
									JOINT LeftHand
									{
										OFFSET 22.992908 0.000000 -0.870901
										CHANNELS 3 Zrotation Yrotation Xrotation
										End Site
										{
											OFFSET 0.000000 0.000000 0.000000
										}
									}
								}
							}
						}
					}
					JOINT RightShoulder_virtual
					{
						OFFSET 0.000000 0.000000 0.000000
						CHANNELS 3 Zrotation Yrotation Xrotation
						JOINT RightShoulder
						{
							OFFSET -6.197824 13.665230 -4.064723
							CHANNELS 3 Zrotation Yrotation Xrotation
							JOINT RightArm
							{
								OFFSET -7.778132 -0.187073 -1.709282
								CHANNELS 3 Zrotation Yrotation Xrotation
								JOINT RightForeArm
								{
									OFFSET -21.954697 0.000000 -2.041093
									CHANNELS 3 Zrotation Yrotation Xrotation
									JOINT RightHand
									{
										OFFSET -22.992908 0.000000 -0.870901
										CHANNELS 3 Zrotation Yrotation Xrotation
										End Site
										{
											OFFSET 0.000000 0.000000 0.000000
										}
									}
								}
							}
						}
					}
				}
			}
		}
	}
}
MOTION
Frames: 7
Frame Time: 0.033333
-25.781059 79.648636 11.473001 178.046339 57.797409 178.022078 -4.830951 -0.306401 12.994420 0.009099 6.078631 -35.310678 8.512045 0.799383 29.195582 -4.087093 -2.631608 -10.990537 0.000000 0.000000 0.000000 -1.459607 -1.784612 12.910302 -3.265133 -4.643782 -45.942052 -1.170286 2.675567 41.936685 8.261791 4.570676 -2.087994 0.000000 0.000000 0.000000 -1.119512 1.376129 3.938569 -2.517519 2.216379 -5.960394 2.556607 -1.966133 4.682062 0.171955 0.046862 -0.029552 3.109133 -0.785238 4.282800 5.567517 -0.069311 -2.545170 0.000000 0.000000 0.000000 4.305105 0.024497 1.173098 -7.721249 -6.909731 -0.606415 -57.934149 -4.907326 1.977252 -1.313145 -14.022037 4.240279 0.000000 0.000000 0.000000 -0.236213 1.461496 0.002186 17.481029 1.956688 -1.921470 27.615882 7.829785 -58.219897 -169.183144 72.322093 -168.822824 0.000000 0.000000 0.000000 
-25.053118 79.681503 12.012239 177.536001 60.125636 177.434859 -5.006979 0.045728 12.914844 0.888673 6.572653 -34.792307 8.676384 0.909441 29.683435 -3.813650 -2.739483 -11.248104 0.000000 0.000000 0.000000 -1.887123 -1.448200 12.946891 -3.298412 -5.295960 -44.840445 -0.936234 3.208217 41.662979 8.238872 4.452393 -2.740189 0.000000 0.000000 0.000000 -1.593783 1.638811 3.763627 -2.411286 2.026456 -6.144191 2.723840 -2.082917 4.865714 0.142542 0.039137 0.063024 3.238418 -0.763160 4.586665 5.246315 0.269062 -1.426645 0.000000 0.000000 0.000000 4.411860 -0.072544 1.219149 -7.703150 -6.506058 -0.579175 -56.770965 -6.057524 0.116776 -1.864583 -13.689564 3.847291 0.000000 0.000000 0.000000 -0.115769 1.362618 0.181061 17.912603 1.382750 -1.781578 31.480021 4.147172 -58.053323 -172.656746 66.183058 -172.730416 0.000000 0.000000 0.000000 
-24.273283 79.696014 12.586216 177.301780 62.414064 177.245294 -5.083286 0.465537 13.214865 1.752634 7.081438 -34.853363 8.741834 0.982860 30.255713 -3.508735 -2.848282 -11.389054 0.000000 0.000000 0.000000 -2.065543 -1.129732 12.868520 -3.437073 -5.719712 -43.512632 -0.762929 3.529513 40.793476 8.370963 4.354389 -3.288186 0.000000 0.000000 0.000000 -1.834331 1.996357 3.422778 -2.356177 1.839756 -6.482419 2.715338 -2.174135 5.125187 0.133214 0.092405 -0.001491 3.346396 -0.891401 4.787744 5.120819 0.284731 -0.236079 0.000000 0.000000 0.000000 4.555121 -0.247423 1.335730 -7.709388 -5.831337 -0.587698 -55.723924 -6.847435 -1.927228 -2.567314 -13.596777 3.736561 0.000000 0.000000 0.000000 0.082712 1.162862 0.348002 18.517963 0.835654 -1.754458 34.716694 0.070295 -57.959811 -174.059639 61.714502 -174.452238 0.000000 0.000000 0.000000 
-23.367022 79.683708 13.221105 176.902938 64.750528 176.831890 -5.067097 0.850402 13.477753 2.622412 7.643295 -34.581692 8.722841 1.103084 30.720470 -3.198913 -2.957255 -11.215667 0.000000 0.000000 0.000000 -2.170032 -0.731630 12.819255 -3.743920 -5.940319 -41.994117 -0.615939 3.743379 39.508720 8.596716 4.234591 -3.722002 0.000000 0.000000 0.000000 -2.018115 2.257445 3.060060 -2.374683 1.746984 -6.892350 2.706921 -2.351827 5.281720 0.166514 0.115463 -0.024589 3.297385 -1.088481 4.982693 4.724401 0.558347 1.046798 0.000000 0.000000 0.000000 4.481335 -0.416594 1.403501 -7.781441 -4.918221 -0.564243 -54.818251 -7.138321 -3.726752 -3.206887 -13.789208 3.783424 0.000000 0.000000 0.000000 -0.037568 1.077325 0.470486 19.150804 0.468277 -1.439667 37.680712 -3.261834 -58.695442 -175.491001 58.977427 -176.105786 0.000000 0.000000 0.000000 
-22.391529 79.634979 13.907068 176.450356 67.184124 176.399662 -4.973801 1.096735 13.581631 3.509582 8.253883 -34.106058 8.625120 1.186292 31.331980 -2.859219 -3.015734 -11.473570 0.000000 0.000000 0.000000 -2.274659 -0.237210 12.743113 -3.944644 -6.020089 -40.449077 -1.060660 3.521189 38.015477 7.749079 2.892600 -3.032815 0.000000 0.000000 0.000000 -2.246711 2.408104 2.615733 -2.376052 1.670781 -7.353317 2.904286 -2.532293 5.448546 0.110394 0.110680 0.032612 3.037329 -1.533704 5.172236 4.242707 0.707344 2.374313 0.000000 0.000000 0.000000 4.243705 -0.643405 1.450123 -7.905379 -4.079903 -0.491233 -54.039009 -7.113062 -5.034914 -3.775330 -14.296336 3.614219 0.000000 0.000000 0.000000 -0.231056 0.750358 0.643272 19.627739 0.163898 -1.410219 40.182290 -5.663134 -58.869810 -176.329161 57.577627 -177.069348 0.000000 0.000000 0.000000 
-21.333788 79.523834 14.747471 175.788620 69.683243 175.707737 -4.789794 1.224825 13.611993 4.393021 8.942060 -33.356223 8.453546 1.213556 31.954740 -2.573420 -3.039216 -11.780617 0.000000 0.000000 0.000000 -1.783313 -0.161002 12.331753 -4.307668 -6.814666 -38.925381 -2.237268 2.638039 36.782508 6.045428 0.750903 -1.474688 0.000000 0.000000 0.000000 -2.146550 2.443918 2.195864 -2.583689 1.504004 -7.774573 2.571904 -2.671544 5.526983 0.171478 0.143951 0.028647 3.047436 -1.416362 5.321414 3.684535 1.070524 3.510560 0.000000 0.000000 0.000000 4.254538 -0.714745 1.522894 -8.020006 -3.176927 -0.399866 -53.412277 -7.016807 -6.194588 -4.336583 -14.851003 3.833641 0.000000 0.000000 0.000000 -0.257240 0.685074 0.846153 20.513602 0.174217 -1.287312 41.735546 -7.404556 -59.320377 -176.693989 57.046785 -177.494992 0.000000 0.000000 0.000000 
-20.170204 79.338432 15.779931 175.061205 72.252050 174.977835 -4.509882 1.338246 13.527042 5.358062 9.666726 -32.375366 8.197264 1.138796 32.697687 -2.392664 -3.035653 -12.130722 0.000000 0.000000 0.000000 -1.467557 -0.257289 11.903503 -4.413359 -7.170223 -37.573492 -2.662674 2.493121 35.950165 5.243718 -0.180086 -1.304494 0.000000 0.000000 0.000000 -2.011596 2.419779 1.832350 -2.808056 1.347050 -8.110522 2.392429 -2.742829 5.550258 0.206544 0.184410 0.033664 2.891916 -1.427247 5.437483 3.220026 1.153246 4.386391 0.000000 0.000000 0.000000 4.346475 -0.742397 1.639921 -8.126162 -2.395037 -0.226324 -52.766862 -6.877844 -7.350522 -5.054634 -15.628617 4.309936 0.000000 0.000000 0.000000 -0.229814 0.640689 1.017641 21.486158 0.076745 -1.341345 42.502061 -8.382705 -59.613522 -177.543814 56.811099 -178.279631 0.000000 0.000000 0.000000 
